<svg width="221" height="215" viewBox="0 0 221 215" fill="none" xmlns="http://www.w3.org/2000/svg">
<circle cx="107.5" cy="107.5" r="107.5" fill="#D6F1F9"/>
<g clip-path="url(#clip0)">
<path d="M163.461 121.492V176.741L172.598 191.801L173.294 192.947H209.346L210.075 121.492H163.461Z" fill="#E6E6E6"/>
<path opacity="0.1" d="M163.461 121.492V176.741L172.598 191.801L173.159 121.492H163.461Z" fill="black"/>
<path d="M76.4242 120.018V175.267L67.287 190.328L66.5916 191.473H30.5387L29.8103 120.018H76.4242Z" fill="#E6E6E6"/>
<path opacity="0.1" d="M76.4241 120.018V175.267L67.287 190.328L66.7262 120.018H76.4241Z" fill="black"/>
<path d="M221 118.914V122.228H25.076V117.44L43.2845 107.864H204.977L221 118.914Z" fill="#E6E6E6"/>
<path opacity="0.1" d="M221 118.914V122.228H25.076V117.44L221 118.914Z" fill="black"/>
<path d="M53.1173 135.488H44.377L40.7353 132.91H57.1231L53.1173 135.488Z" fill="#3F3D56"/>
<path d="M53.1173 146.17H44.377L40.7353 143.591H57.1231L53.1173 146.17Z" fill="#3F3D56"/>
<path d="M53.1173 161.271H44.377L40.7353 158.693H57.1231L53.1173 161.271Z" fill="#3F3D56"/>
<path d="M53.1173 176.372H44.377L40.7353 173.794H57.1231L53.1173 176.372Z" fill="#3F3D56"/>
<path d="M186.768 136.961H195.508L199.15 134.383H182.762L186.768 136.961Z" fill="#3F3D56"/>
<path d="M186.768 147.643H195.508L199.15 145.065H182.762L186.768 147.643Z" fill="#3F3D56"/>
<path d="M186.768 162.744H195.508L199.15 160.166H182.762L186.768 162.744Z" fill="#3F3D56"/>
<path d="M186.768 177.846H195.508L199.15 175.267H182.762L186.768 177.846Z" fill="#3F3D56"/>
<path d="M192.72 43.9741H119.14C118.775 43.9741 118.413 44.0469 118.075 44.1883C117.738 44.3297 117.431 44.537 117.172 44.7984C116.914 45.0597 116.709 45.37 116.569 45.7115C116.429 46.053 116.357 46.419 116.357 46.7886V96.9191C116.357 97.2887 116.429 97.6547 116.569 97.9962C116.709 98.3377 116.914 98.6479 117.172 98.9093C117.431 99.1707 117.738 99.378 118.075 99.5194C118.413 99.6608 118.775 99.7336 119.14 99.7335H147.072L146.025 106.491C146.025 106.491 140.045 109.704 144.25 109.799C148.455 109.893 168.264 109.799 168.264 109.799C168.264 109.799 172.095 109.799 166.022 106.396L165.037 99.7335H192.72C193.085 99.7336 193.447 99.6608 193.785 99.5194C194.122 99.378 194.429 99.1707 194.688 98.9093C194.946 98.648 195.151 98.3377 195.291 97.9962C195.431 97.6547 195.503 97.2887 195.502 96.9191V46.7886C195.503 46.419 195.431 46.053 195.291 45.7115C195.151 45.37 194.946 45.0597 194.688 44.7984C194.429 44.537 194.122 44.3297 193.785 44.1883C193.447 44.0469 193.085 43.9741 192.72 43.9741Z" fill="#3F3D56"/>
<path d="M192.839 46.9511H119.021V88.7234H192.839V46.9511Z" fill="#F2F2F2"/>
<path d="M155.93 46.1006C156.188 46.1006 156.397 45.889 156.397 45.628C156.397 45.367 156.188 45.1555 155.93 45.1555C155.672 45.1555 155.463 45.367 155.463 45.628C155.463 45.889 155.672 46.1006 155.93 46.1006Z" fill="#F2F2F2"/>
<path d="M155.93 97.7016C156.911 97.7016 157.705 96.8977 157.705 95.906C157.705 94.9143 156.911 94.1103 155.93 94.1103C154.949 94.1103 154.155 94.9143 154.155 95.906C154.155 96.8977 154.949 97.7016 155.93 97.7016Z" fill="#F2F2F2"/>
<path d="M153.163 114.902V115.847H102.892V115.091L102.961 114.902L104.2 111.5H152.136L153.163 114.902Z" fill="#3F3D56"/>
<path d="M172.51 113.977C172.418 114.373 172.072 114.79 171.291 115.186C168.488 116.603 162.788 114.807 162.788 114.807C162.788 114.807 158.396 114.051 158.396 112.067C158.519 111.981 158.648 111.904 158.781 111.835C159.96 111.205 163.867 109.648 170.796 111.901C171.307 112.063 171.763 112.365 172.113 112.774C172.269 112.929 172.386 113.118 172.454 113.327C172.523 113.536 172.542 113.759 172.51 113.977Z" fill="#3F3D56"/>
<path opacity="0.1" d="M172.51 113.977C169.078 115.306 166.02 115.406 162.881 113.201C161.694 112.313 160.257 111.835 158.781 111.835C159.96 111.205 163.867 109.648 170.796 111.901C171.307 112.063 171.763 112.365 172.113 112.774C172.269 112.929 172.386 113.118 172.454 113.327C172.523 113.536 172.542 113.759 172.51 113.977Z" fill="black"/>
<path d="M168.207 113.201C168.878 113.201 169.422 113.032 169.422 112.823C169.422 112.614 168.878 112.445 168.207 112.445C167.537 112.445 166.993 112.614 166.993 112.823C166.993 113.032 167.537 113.201 168.207 113.201Z" fill="#F2F2F2"/>
<path opacity="0.1" d="M153.163 114.902V115.847H102.892V115.091L102.961 114.902H153.163Z" fill="black"/>
<path d="M38.9517 8.00004C38.4415 7.95767 37.9306 8.0731 37.4867 8.33103C37.0509 8.63291 36.7762 9.16176 36.4958 9.65389C35.4237 11.558 33.9724 13.2161 32.2337 14.5233C30.9672 15.4616 29.3571 16.6316 29.5738 18.3617C29.6881 18.933 29.8968 19.4808 30.1911 19.982C31.3594 22.3673 34.5475 24.2107 34.234 26.9325C35.3947 24.9671 33.8421 23.9953 35.0029 22.0299C35.5556 21.094 36.5159 20.0374 37.3505 20.6252C37.63 20.822 37.8134 21.175 38.1044 21.3477C38.7987 21.7597 39.5373 20.972 40.1518 20.414C42.271 18.4899 45.2847 18.994 47.9218 19.5935C49.1668 19.8765 50.5342 20.2478 51.2702 21.4513C52.2378 23.0336 50.3509 24.7425 49.8741 26.5315C49.8352 26.6839 49.8333 26.8436 49.8687 26.9969C49.9041 27.1502 49.9757 27.2926 50.0774 27.4118C50.179 27.531 50.3077 27.6236 50.4525 27.6816C50.5972 27.7395 50.7536 27.7612 50.9084 27.7446C51.6997 27.6657 52.6371 27.601 52.6839 27.2498C53.6795 27.2856 54.8993 27.1716 55.3259 26.1231C55.4562 25.7083 55.5251 25.2762 55.5304 24.841C55.6869 23.0798 56.426 21.4731 56.9156 19.7968C57.4052 18.1206 57.6181 16.1561 56.7918 14.67C56.4969 14.1755 56.1323 13.7272 55.7093 13.3393C51.0206 8.75006 44.8559 7.99323 38.9517 8.00004Z" fill="#2F2E41"/>
<path d="M35.2537 30.3704C35.2537 30.3704 36.2734 38.965 32.5344 39.6526C28.7954 40.3401 35.9335 52.0288 35.9335 52.0288L52.9289 54.0916L48.85 40.3401C48.85 40.3401 46.1308 39.3088 47.8303 32.4331C49.5298 25.5574 35.2537 30.3704 35.2537 30.3704Z" fill="#FFB8B8"/>
<path d="M24.8865 178.026L26.2462 196.935H33.3841L31.3449 178.026H24.8865Z" fill="#FFB8B8"/>
<path d="M77.2323 142.273L78.2519 158.087L86.0701 154.649L83.0107 141.585L77.2323 142.273Z" fill="#FFB8B8"/>
<path d="M19.7878 105.831C19.7878 105.831 20.1277 125.771 22.1672 132.303C24.2067 138.835 23.8668 139.178 23.5268 140.21C23.1869 141.241 22.847 140.554 22.847 142.273C22.847 143.991 22.1672 171.151 22.847 173.557C23.5268 175.964 20.8076 180.089 22.847 180.433C24.8865 180.777 34.4039 180.433 34.7438 178.37C35.0837 176.307 32.0246 175.62 33.3842 174.245C34.7438 172.869 36.7833 144.679 36.7833 144.679L41.542 125.083L50.3796 114.77H69.0745L74.853 137.46C74.853 137.46 72.4736 143.991 74.1732 143.991C75.8727 143.991 86.07 146.054 86.07 138.491C86.07 130.928 82.6709 108.582 81.9911 107.894C81.3113 107.206 82.331 104.8 81.3112 103.769C80.2915 102.737 68.3947 95.5177 63.9759 94.1426C59.5571 92.7674 53.3583 91.1307 53.3583 91.1307L19.7878 105.831Z" fill="#2F2E41"/>
<path d="M86.0699 151.899C86.0699 151.899 80.9713 150.18 78.592 155.336C76.2126 160.493 77.2323 161.868 77.2323 161.868C77.2323 161.868 85.0502 164.619 86.4099 163.243C87.0014 162.645 88.8798 162.437 90.8133 162.393C93.7581 162.327 94.5416 158.113 91.7604 157.132C91.6774 157.102 91.5934 157.077 91.5085 157.055C88.7892 156.368 86.0699 151.899 86.0699 151.899Z" fill="#2F2E41"/>
<path d="M42.9016 36.0428C48.5334 36.0428 53.0988 31.4253 53.0988 25.7292C53.0988 20.0332 48.5334 15.4157 42.9016 15.4157C37.2698 15.4157 32.7043 20.0332 32.7043 25.7292C32.7043 31.4253 37.2698 36.0428 42.9016 36.0428Z" fill="#FFB8B8"/>
<path d="M29.6452 43.9499C29.6452 43.9499 46.3007 47.3877 50.3796 41.8872C54.4585 36.3866 56.158 57.3575 56.158 57.3575L58.1975 79.3598L55.1383 91.3923C55.1383 91.3923 39.1626 104.456 34.064 105.488C28.9654 106.519 21.1475 107.206 21.1475 107.206C21.1475 107.206 23.5269 69.0462 23.5269 68.3587C23.5269 67.6711 29.6452 43.9499 29.6452 43.9499Z" fill="#165FEA"/>
<path d="M34.7105 37.5023C34.7105 37.5023 31.0048 35.3552 29.9851 37.418C28.9654 39.4807 19.448 44.6375 18.4282 44.6375C17.4085 44.6375 20.4677 73.1717 19.108 76.6095C17.7484 80.0474 11.2902 105.144 15.0292 107.206C18.7681 109.269 16.0489 105.144 19.7879 110.301C23.5269 115.457 41.8819 115.457 42.9016 113.395C43.9213 111.332 34.7438 95.8615 36.4434 81.4225C38.1429 66.9835 40.8622 47.044 38.4828 44.2937C36.1035 41.5434 34.7105 37.5023 34.7105 37.5023Z" fill="#2F2E41"/>
<path d="M46.9805 39.8245L47.454 38.1765C47.454 38.1765 61.5966 42.9185 62.2764 46.0126C62.9562 49.1067 62.6163 70.7652 60.2369 72.4841C57.8576 74.203 54.4585 76.9533 56.8378 81.0787C59.2172 85.2042 61.9365 89.6734 63.9759 90.0172C66.0154 90.3609 69.7544 92.7674 68.7346 95.1739C67.7149 97.5804 55.4782 93.1112 55.4782 93.1112C55.4782 93.1112 47.3204 86.9231 47.6603 77.2971C48.0002 67.6711 46.9805 39.8245 46.9805 39.8245Z" fill="#2F2E41"/>
<path d="M58.8773 80.3912L50.7195 95.8615C50.7195 95.8615 38.8227 108.238 45.6209 109.613C52.4191 110.988 56.158 98.268 56.158 98.268L64.9956 85.5479L58.8773 80.3912Z" fill="#FFB8B8"/>
<path d="M39.4485 10.6986C39.0374 10.6678 38.6257 10.7485 38.2559 10.9325C37.9215 11.1795 37.6459 11.4989 37.4493 11.8675C36.5426 13.2468 35.3608 14.4191 33.9797 15.3091C32.9487 15.9723 31.6381 16.7993 31.8145 18.0221C31.9102 18.4321 32.0806 18.8205 32.317 19.1673C33.2713 20.8703 33.6512 22.8413 33.3992 24.7821L36.2339 20.6148C36.6839 19.9533 37.4656 19.2065 38.145 19.622C38.3725 19.7611 38.5219 20.0105 38.7587 20.1326C39.3239 20.4238 39.9251 19.8671 40.4254 19.4727C42.1505 18.1128 44.6038 18.469 46.7505 18.8927C47.764 19.0928 48.8771 19.3552 49.4762 20.2058C50.4718 21.6194 49.4322 23.6618 50.0133 25.2948C50.176 25.1796 50.3141 25.0326 50.4195 24.8624C50.5249 24.6923 50.5955 24.5024 50.6271 24.3041C51.4375 24.3295 52.4305 24.2489 52.7777 23.5078C52.8833 23.2174 52.9396 22.911 52.9442 22.6016C53.0716 21.3568 53.6732 20.2212 54.0718 19.0364C54.4704 17.8517 54.6437 16.4632 53.9711 15.4128C53.725 15.0569 53.428 14.7399 53.0899 14.4723C49.273 11.2287 44.2547 10.6937 39.4485 10.6986Z" fill="#2F2E41"/>
<path d="M58.8773 44.6375L62.0442 45.4877C62.0442 45.4877 69.4144 64.577 67.7149 77.6409C66.0154 90.7048 64.9956 87.9544 64.9956 87.9544C64.9956 87.9544 62.2764 81.7663 56.158 83.1415L58.8773 44.6375Z" fill="#2F2E41"/>
<path d="M25.3574 194.436C24.5377 195.562 24.7021 197.173 23.976 198.363C23.3466 199.395 22.1605 199.936 21.3733 200.85C21.1221 201.154 20.8981 201.48 20.7041 201.824C19.9739 203.061 19.3803 204.647 20.0995 205.89C20.6781 206.891 21.8942 207.282 23.0095 207.549C24.4192 207.885 25.8838 208.155 27.3098 207.898C28.7358 207.64 30.1294 206.757 30.6378 205.385C30.7378 205.04 30.8565 204.701 30.9937 204.37C31.7666 202.831 34.1908 202.814 34.9818 201.285C35.5354 200.214 35.0265 198.92 34.5179 197.827L32.9644 194.489C32.4488 193.382 30.3589 194.019 29.2694 193.753C27.8484 193.407 26.3796 193.026 25.3574 194.436Z" fill="#2F2E41"/>
<path d="M14.0094 87.2669L28.2855 109.613C28.2855 109.613 37.1231 120.958 39.8424 115.801C42.5617 110.644 30.325 102.05 30.325 102.05L21.1474 84.8604L14.0094 87.2669Z" fill="#FFB8B8"/>
<path d="M21.1475 45.325L18.4282 44.6375C18.4282 44.6375 12.9897 46.3564 11.63 53.5759C10.2704 60.7954 11.2901 89.6734 12.9897 90.0171C14.6892 90.3609 21.3837 84.9889 22.4553 86.1279C23.5268 87.2669 20.1277 81.4225 21.1475 78.3284C22.1672 75.2344 21.1475 45.325 21.1475 45.325Z" fill="#2F2E41"/>
<path d="M148.943 60.6705H140.158V62.8096H148.943V60.6705Z" fill="#165FEA"/>
<path d="M179.366 60.6705H176.275V62.8096H179.366V60.6705Z" fill="#165FEA"/>
<path d="M185.549 60.6705H182.457V62.8096H185.549V60.6705Z" fill="#165FEA"/>
<path d="M173.021 60.6705H152.034V62.8096H173.021V60.6705Z" fill="#165FEA"/>
<path d="M137.88 74.4924H129.095V76.6315H137.88V74.4924Z" fill="#165FEA"/>
<path d="M168.303 74.4924H165.212V76.6315H168.303V74.4924Z" fill="#165FEA"/>
<path d="M174.486 74.4924H171.394V76.6315H174.486V74.4924Z" fill="#165FEA"/>
<path d="M161.958 74.4924H140.971V76.6315H161.958V74.4924Z" fill="#165FEA"/>
<path d="M174.16 65.4424H165.375V67.5815H174.16V65.4424Z" fill="#165FEA"/>
<path d="M186.037 65.4424H177.251V67.5815H186.037V65.4424Z" fill="#165FEA"/>
<path d="M132.186 65.4424H129.095V67.5815H132.186V65.4424Z" fill="#165FEA"/>
<path d="M138.368 65.4424H135.277V67.5815H138.368V65.4424Z" fill="#165FEA"/>
<path d="M162.446 65.4424H141.459V67.5815H162.446V65.4424Z" fill="#165FEA"/>
<path d="M155.939 70.0497H147.154V72.1888H155.939V70.0497Z" fill="#165FEA"/>
<path d="M144.062 70.0497H135.277V72.1888H144.062V70.0497Z" fill="#165FEA"/>
<path d="M132.186 70.0497H129.095V72.1888H132.186V70.0497Z" fill="#165FEA"/>
<path d="M186.037 70.0497H182.945V72.1888H186.037V70.0497Z" fill="#165FEA"/>
<path d="M179.854 70.0497H158.867V72.1888H179.854V70.0497Z" fill="#165FEA"/>
</g>
<defs>
<clipPath id="clip0">
<rect width="210" height="200" fill="white" transform="translate(11 8)"/>
</clipPath>
</defs>
</svg>
